<?xml version="1.0" encoding="UTF-8" standalone="no"?>
<svg
   width="32"
   height="32"
   viewBox="0 0 32 32"
   version="1.1"
   id="svg2"
   sodipodi:docname="close-inactive.svg"
   inkscape:version="1.2.2 (b0a8486541, 2022-12-01)"
   xmlns:inkscape="http://www.inkscape.org/namespaces/inkscape"
   xmlns:sodipodi="http://sodipodi.sourceforge.net/DTD/sodipodi-0.dtd"
   xmlns="http://www.w3.org/2000/svg"
   xmlns:svg="http://www.w3.org/2000/svg">
  <defs
     id="defs2" />
  <sodipodi:namedview
     id="namedview2"
     pagecolor="#ffffff"
     bordercolor="#000000"
     borderopacity="0.25"
     inkscape:showpageshadow="2"
     inkscape:pageopacity="0.0"
     inkscape:pagecheckerboard="0"
     inkscape:deskcolor="#d1d1d1"
     inkscape:zoom="13.700194"
     inkscape:cx="9.9998584"
     inkscape:cy="18.904842"
     inkscape:window-width="1600"
     inkscape:window-height="828"
     inkscape:window-x="0"
     inkscape:window-y="71"
     inkscape:window-maximized="1"
     inkscape:current-layer="svg2"
     showgrid="false" />
  <path
     style="color:#ffffff;fill:#bcbdbf;stroke-width:1.5;stroke:none;fill-opacity:1"
     class="ColorScheme-Text"
     d="m 11.5,10 c -0.82845,0 -1.5,0.67155 -1.5,1.5 0,0.3978 0.15825,0.77925 0.4395,1.0605 l 9,9 C 19.72,21.8425 20.1025,22 20.5,22 21.328,22 22,21.328 22,20.5 22,20.1025 21.8425,19.72 21.5605,19.4395 l -9,-9 C 12.27925,10.15825 11.8978,10 11.5,10 Z"
     id="path688" />
  <path
     style="color:#ffffff;fill:#bcbdbf;stroke-width:1.5;stroke:none;fill-opacity:1"
     class="ColorScheme-Text"
     d="M 11.5,22 C 10.67155,22 10,21.328 10,20.5 c 0,-0.3975 0.15825,-0.78 0.4395,-1.0605 l 9,-9 C 19.72,10.1575 20.1025,10 20.5,10 c 0.828,0 1.5,0.672 1.5,1.5 0,0.3975 -0.1575,0.78 -0.4395,1.0605 l -9,9 C 12.27925,21.8425 11.8978,22 11.5,22 Z"
     id="path690" />
</svg>
